<?xml version="1.0" encoding="UTF-8"?>
<!DOCTYPE svg PUBLIC "-//W3C//DTD SVG 1.1//EN" "http://www.w3.org/Graphics/SVG/1.1/DTD/svg11.dtd">
<svg xmlns="http://www.w3.org/2000/svg" version="1.1" width="512px" height="512px" style="shape-rendering:geometricPrecision; text-rendering:geometricPrecision; image-rendering:optimizeQuality; fill-rule:evenodd; clip-rule:evenodd" xmlns:xlink="http://www.w3.org/1999/xlink">
<g><path style="opacity:0.976" fill="#538b73" d="M 228.5,14.5 C 233.833,14.5 239.167,14.5 244.5,14.5C 244.5,175.167 244.5,335.833 244.5,496.5C 191.336,493.496 146.503,472.829 110,434.5C 67.9097,384.846 51.5764,327.513 61,262.5C 65.711,212.372 79.711,165.038 103,120.5C 123.304,81.8651 152.137,51.3651 189.5,29C 202.185,22.9763 215.185,18.143 228.5,14.5 Z"/></g>
<g><path style="opacity:0.916" fill="#76bf9d" d="M 264.5,14.5 C 280.668,13.5414 296.002,16.708 310.5,24C 323.659,30.0743 335.993,37.4077 347.5,46C 349.543,47.708 351.21,49.708 352.5,52C 324.167,77.6667 295.833,103.333 267.5,129C 266.552,129.483 265.552,129.649 264.5,129.5C 264.5,91.1667 264.5,52.8333 264.5,14.5 Z"/></g>
<g><path style="opacity:0.942" fill="#5c997e" d="M 364.5,63.5 C 366.735,64.2279 368.568,65.5612 370,67.5C 388.144,88.4884 403.31,111.488 415.5,136.5C 414.747,138.753 413.414,140.587 411.5,142C 368.187,179.315 325.52,217.315 283.5,256C 277.574,259.921 272.241,264.588 267.5,270C 266.552,270.483 265.552,270.649 264.5,270.5C 264.333,231.165 264.5,191.832 265,152.5C 298.114,122.54 331.281,92.8732 364.5,63.5 Z"/></g>
<g><path style="opacity:0.945" fill="#427460" d="M 419.5,155.5 C 420.833,155.5 422.167,155.5 423.5,155.5C 435.588,186.517 443.255,218.517 446.5,251.5C 386.31,304.196 326.643,357.363 267.5,411C 266.552,411.483 265.552,411.649 264.5,411.5C 264.333,372.165 264.5,332.832 265,293.5C 316.422,247.235 367.922,201.235 419.5,155.5 Z"/></g>
<g><path style="opacity:0.944" fill="#274c41" d="M 446.5,272.5 C 447.496,272.414 448.329,272.748 449,273.5C 457.141,348.828 432.307,410.328 374.5,458C 347.274,477.86 316.94,490.527 283.5,496C 277.175,496.5 270.842,496.666 264.5,496.5C 264.333,475.831 264.5,455.164 265,434.5C 325.643,380.692 386.143,326.692 446.5,272.5 Z"/></g>
</svg>
