<?xml version="1.0" encoding="UTF-8"?>
<svg version="1.1" xmlns="http://www.w3.org/2000/svg" width="70" height="70">
<path d="M0 0 C0 21.12 0 42.24 0 64 C-9.88513065 62.90165215 -12.8640291 61.3595369 -19.3125 54.5625 C-24.62107499 46.50133058 -25.13190809 38.40235374 -24 29 C-21.53745584 17.9071506 -16.32167437 8.23284669 -6.6875 1.875 C-4.05998883 0.3294052 -3.14705368 0 0 0 Z " fill="#538B74" transform="translate(33,3)"/>
<path d="M0 0 C0.65752951 8.50404836 0.0665714 14.94820952 -5 22 C-8.64055307 25.95616553 -12.65049949 29.73301304 -18 31 C-21.3125 31.125 -21.3125 31.125 -24 31 C-24.61126624 23.88082731 -24.61126624 23.88082731 -21.90454102 19.98046875 C-20.95815625 19.02865415 -19.98988519 18.09823634 -19.00390625 17.1875 C-18.49576889 16.68831055 -17.98763153 16.18912109 -17.46409607 15.67480469 C-15.84812058 14.09675242 -14.20623692 12.54905883 -12.5625 11 C-11.46112313 9.93020209 -10.36149279 8.85860296 -9.26367188 7.78515625 C-1.244798 0 -1.244798 0 0 0 Z " fill="#274C41" transform="translate(61,36)"/>
<path d="M0 0 C0.99 0.33 1.98 0.66 3 1 C3.79248047 4.15649414 3.79248047 4.15649414 4 8 C2.10986328 10.81420898 2.10986328 10.81420898 -0.6796875 13.49609375 C-1.16704376 13.97450211 -1.65440002 14.45291046 -2.15652466 14.94581604 C-3.711537 16.46280688 -5.29235851 17.9494128 -6.875 19.4375 C-7.93275035 20.46368297 -8.98876225 21.49166111 -10.04296875 22.52148438 C-17.75553192 30 -17.75553192 30 -19 30 C-19.83018593 24.90904256 -20.14860092 20.7339214 -17.21875 16.31103516 C-14.75014562 13.66936455 -12.18958746 11.22853767 -9.5 8.8125 C-8.59378906 7.95591797 -7.68757813 7.09933594 -6.75390625 6.21679688 C-4.52546738 4.11737289 -2.27568103 2.0479218 0 0 Z " fill="#427461" transform="translate(56,24)"/>
<path d="M0 0 C2.5 2.25 2.5 2.25 5 5 C5 9 5 9 3.45532227 11.01464844 C2.74947998 11.7059082 2.0436377 12.39716797 1.31640625 13.109375 C0.55392578 13.86347656 -0.20855469 14.61757813 -0.99414062 15.39453125 C-2.20360352 16.56048828 -2.20360352 16.56048828 -3.4375 17.75 C-4.64116211 18.93916016 -4.64116211 18.93916016 -5.86914062 20.15234375 C-11.83254222 26 -11.83254222 26 -13 26 C-13.97972964 20.88363408 -14.78481368 15.64614168 -11.72412109 11.10839844 C-8.17461394 7.01602549 -4.14301761 3.4771755 0 0 Z " fill="#5C997F" transform="translate(50,12)"/>
<path d="M0 0 C4.86275001 0.97255 7.07813602 2.17260969 11 5 C9.52651292 8.42527887 7.59092154 10.64955058 4.9375 13.25 C4.22464844 13.95640625 3.51179688 14.6628125 2.77734375 15.390625 C1 17 1 17 0 17 C0 11.39 0 5.78 0 0 Z " fill="#76BF9E" transform="translate(37,3)"/>
</svg>
