<?xml version="1.0" encoding="UTF-8"?>
<svg xmlns="http://www.w3.org/2000/svg" xmlns:xlink="http://www.w3.org/1999/xlink" width="25px" height="25px" viewBox="0 0 25 25" version="1.1">
<defs>
<filter id="alpha" filterUnits="objectBoundingBox" x="0%" y="0%" width="100%" height="100%">
  <feColorMatrix type="matrix" in="SourceGraphic" values="0 0 0 0 1 0 0 0 0 1 0 0 0 0 1 0 0 0 1 0"/>
</filter>
<mask id="mask0">
  <g filter="url(#alpha)">
<rect x="0" y="0" width="25" height="25" style="fill:rgb(0%,0%,0%);fill-opacity:0.976471;stroke:none;"/>
  </g>
</mask>
<clipPath id="clip1">
  <rect x="0" y="0" width="25" height="25"/>
</clipPath>
<g id="surface5" clip-path="url(#clip1)">
<path style=" stroke:none;fill-rule:evenodd;fill:rgb(32.54902%,54.509804%,45.098039%);fill-opacity:1;" d="M 11.15625 0.707031 C 11.417969 0.707031 11.679688 0.707031 11.9375 0.707031 C 11.9375 8.554688 11.9375 16.398438 11.9375 24.242188 C 9.34375 24.097656 7.152344 23.085938 5.371094 21.214844 C 3.316406 18.792969 2.519531 15.992188 2.976562 12.816406 C 3.207031 10.371094 3.890625 8.058594 5.03125 5.882812 C 6.019531 3.996094 7.429688 2.507812 9.253906 1.414062 C 9.871094 1.121094 10.507812 0.886719 11.15625 0.707031 Z M 11.15625 0.707031 "/>
</g>
<mask id="mask1">
  <g filter="url(#alpha)">
<rect x="0" y="0" width="25" height="25" style="fill:rgb(0%,0%,0%);fill-opacity:0.917647;stroke:none;"/>
  </g>
</mask>
<clipPath id="clip2">
  <rect x="0" y="0" width="25" height="25"/>
</clipPath>
<g id="surface8" clip-path="url(#clip2)">
<path style=" stroke:none;fill-rule:evenodd;fill:rgb(46.27451%,74.901961%,61.568627%);fill-opacity:1;" d="M 12.914062 0.707031 C 13.703125 0.660156 14.453125 0.816406 15.160156 1.171875 C 15.804688 1.46875 16.40625 1.828125 16.96875 2.246094 C 17.066406 2.328125 17.148438 2.425781 17.210938 2.539062 C 15.828125 3.792969 14.445312 5.046875 13.0625 6.296875 C 13.015625 6.324219 12.964844 6.332031 12.914062 6.324219 C 12.914062 4.453125 12.914062 2.578125 12.914062 0.707031 Z M 12.914062 0.707031 "/>
</g>
<mask id="mask2">
  <g filter="url(#alpha)">
<rect x="0" y="0" width="25" height="25" style="fill:rgb(0%,0%,0%);fill-opacity:0.941176;stroke:none;"/>
  </g>
</mask>
<clipPath id="clip3">
  <rect x="0" y="0" width="25" height="25"/>
</clipPath>
<g id="surface11" clip-path="url(#clip3)">
<path style=" stroke:none;fill-rule:evenodd;fill:rgb(36.078431%,60%,49.411765%);fill-opacity:1;" d="M 17.796875 3.101562 C 17.90625 3.136719 17.996094 3.203125 18.066406 3.296875 C 18.953125 4.320312 19.691406 5.445312 20.289062 6.664062 C 20.25 6.773438 20.1875 6.863281 20.09375 6.933594 C 17.976562 8.753906 15.894531 10.609375 13.84375 12.5 C 13.554688 12.691406 13.292969 12.917969 13.0625 13.183594 C 13.015625 13.207031 12.964844 13.214844 12.914062 13.207031 C 12.90625 11.289062 12.914062 9.367188 12.9375 7.445312 C 14.554688 5.984375 16.175781 4.535156 17.796875 3.101562 Z M 17.796875 3.101562 "/>
</g>
<mask id="mask3">
  <g filter="url(#alpha)">
<rect x="0" y="0" width="25" height="25" style="fill:rgb(0%,0%,0%);fill-opacity:0.945098;stroke:none;"/>
  </g>
</mask>
<clipPath id="clip4">
  <rect x="0" y="0" width="25" height="25"/>
</clipPath>
<g id="surface14" clip-path="url(#clip4)">
<path style=" stroke:none;fill-rule:evenodd;fill:rgb(25.882353%,45.490196%,37.647059%);fill-opacity:1;" d="M 20.484375 7.59375 C 20.546875 7.59375 20.613281 7.59375 20.679688 7.59375 C 21.269531 9.105469 21.644531 10.667969 21.800781 12.28125 C 18.863281 14.851562 15.949219 17.449219 13.0625 20.070312 C 13.015625 20.09375 12.964844 20.101562 12.914062 20.09375 C 12.90625 18.171875 12.914062 16.25 12.9375 14.332031 C 15.449219 12.070312 17.964844 9.824219 20.484375 7.59375 Z M 20.484375 7.59375 "/>
</g>
<mask id="mask4">
  <g filter="url(#alpha)">
<rect x="0" y="0" width="25" height="25" style="fill:rgb(0%,0%,0%);fill-opacity:0.945098;stroke:none;"/>
  </g>
</mask>
<clipPath id="clip5">
  <rect x="0" y="0" width="25" height="25"/>
</clipPath>
<g id="surface17" clip-path="url(#clip5)">
<path style=" stroke:none;fill-rule:evenodd;fill:rgb(15.294118%,29.803922%,25.490196%);fill-opacity:1;" d="M 21.800781 13.304688 C 21.851562 13.300781 21.890625 13.316406 21.921875 13.355469 C 22.320312 17.03125 21.109375 20.035156 18.285156 22.363281 C 16.957031 23.332031 15.476562 23.953125 13.84375 24.21875 C 13.535156 24.242188 13.226562 24.25 12.914062 24.242188 C 12.90625 23.234375 12.914062 22.226562 12.9375 21.214844 C 15.902344 18.589844 18.855469 15.953125 21.800781 13.304688 Z M 21.800781 13.304688 "/>
</g>
</defs>
<g id="surface1">
<use xlink:href="#surface5" mask="url(#mask0)"/>
<use xlink:href="#surface8" mask="url(#mask1)"/>
<use xlink:href="#surface11" mask="url(#mask2)"/>
<use xlink:href="#surface14" mask="url(#mask3)"/>
<use xlink:href="#surface17" mask="url(#mask4)"/>
</g>
</svg>
