<?xml version="1.0" encoding="UTF-8"?>
<svg xmlns="http://www.w3.org/2000/svg" xmlns:xlink="http://www.w3.org/1999/xlink" width="25px" height="25px" viewBox="0 0 25 25" version="1.1">
<g id="surface1">
<path style=" stroke:none;fill-rule:nonzero;fill:rgb(32.54902%,54.509804%,45.490196%);fill-opacity:1;" d="M 11.785156 1.070312 C 11.785156 8.613281 11.785156 16.15625 11.785156 23.929688 C 8.253906 23.535156 7.191406 22.984375 4.886719 20.558594 C 2.992188 17.679688 2.808594 14.785156 3.214844 11.429688 C 4.09375 7.46875 5.957031 4.011719 9.398438 1.742188 C 10.335938 1.1875 10.660156 1.070312 11.785156 1.070312 Z M 11.785156 1.070312 "/>
<path style=" stroke:none;fill-rule:nonzero;fill:rgb(15.294118%,29.803922%,25.490196%);fill-opacity:1;" d="M 21.785156 12.855469 C 22.019531 15.894531 21.808594 18.195312 20 20.714844 C 18.699219 22.128906 17.269531 23.476562 15.355469 23.929688 C 14.175781 23.972656 14.175781 23.972656 13.214844 23.929688 C 12.996094 21.386719 12.996094 21.386719 13.960938 19.992188 C 14.300781 19.652344 14.644531 19.320312 15 18.996094 C 15.179688 18.816406 15.363281 18.640625 15.546875 18.457031 C 16.125 17.890625 16.710938 17.339844 17.300781 16.785156 C 17.691406 16.402344 18.085938 16.019531 18.476562 15.636719 C 21.339844 12.855469 21.339844 12.855469 21.785156 12.855469 Z M 21.785156 12.855469 "/>
<path style=" stroke:none;fill-rule:nonzero;fill:rgb(25.882353%,45.490196%,38.039216%);fill-opacity:1;" d="M 20 8.570312 C 20.355469 8.6875 20.707031 8.808594 21.070312 8.929688 C 21.355469 10.054688 21.355469 10.054688 21.429688 11.429688 C 20.753906 12.433594 20.753906 12.433594 19.757812 13.390625 C 19.582031 13.5625 19.410156 13.734375 19.230469 13.910156 C 18.675781 14.449219 18.109375 14.980469 17.542969 15.511719 C 17.167969 15.878906 16.789062 16.246094 16.414062 16.613281 C 13.660156 19.285156 13.660156 19.285156 13.214844 19.285156 C 12.917969 17.46875 12.804688 15.976562 13.851562 14.398438 C 14.730469 13.453125 15.648438 12.582031 16.605469 11.71875 C 16.929688 11.414062 17.253906 11.105469 17.585938 10.792969 C 18.382812 10.042969 19.1875 9.304688 20 8.570312 Z M 20 8.570312 "/>
<path style=" stroke:none;fill-rule:nonzero;fill:rgb(36.078431%,60%,49.803922%);fill-opacity:1;" d="M 17.855469 4.285156 C 18.75 5.089844 18.75 5.089844 19.644531 6.070312 C 19.644531 7.5 19.644531 7.5 19.089844 8.21875 C 18.839844 8.464844 18.585938 8.714844 18.328125 8.96875 C 18.054688 9.238281 17.78125 9.507812 17.503906 9.785156 C 17.070312 10.199219 17.070312 10.199219 16.628906 10.625 C 16.199219 11.050781 16.199219 11.050781 15.761719 11.484375 C 13.632812 13.570312 13.632812 13.570312 13.214844 13.570312 C 12.863281 11.746094 12.578125 9.875 13.671875 8.253906 C 14.9375 6.792969 16.378906 5.527344 17.855469 4.285156 Z M 17.855469 4.285156 "/>
<path style=" stroke:none;fill-rule:nonzero;fill:rgb(46.27451%,74.901961%,61.960784%);fill-opacity:1;" d="M 13.214844 1.070312 C 14.949219 1.417969 15.742188 1.847656 17.144531 2.855469 C 16.617188 4.082031 15.925781 4.875 14.976562 5.804688 C 14.722656 6.054688 14.46875 6.308594 14.207031 6.566406 C 13.570312 7.144531 13.570312 7.144531 13.214844 7.144531 C 13.214844 5.140625 13.214844 3.136719 13.214844 1.070312 Z M 13.214844 1.070312 "/>
</g>
</svg>
